<?xml version="1.0" encoding="utf-8"?>
<!-- Generator: Adobe Illustrator 22.1.0, SVG Export Plug-In . SVG Version: 6.00 Build 0)  -->
<svg version="1.1" id="OBJECTS" xmlns="http://www.w3.org/2000/svg" xmlns:xlink="http://www.w3.org/1999/xlink" x="0px" y="0px"
	 viewBox="0 0 223.8 187.9" style="enable-background:new 0 0 223.8 187.9;" xml:space="preserve">
<style type="text/css">
	.st0{fill:#F0F0F0;}
	.st1{clip-path:url(#SVGID_2_);fill:#F0F0F0;}
	.st2{fill:url(#SVGID_3_);}
	.st3{fill:#44BB79;}
	.st4{clip-path:url(#SVGID_5_);fill:#5AF9A1;}
	.st5{fill:#D1E8E6;}
	.st6{fill:#FFFFFF;}
	.st7{fill:#C5E0E2;}
	.st8{fill:#DFE2EF;}
	.st9{fill:#3D415B;}
	.st10{fill:none;stroke:#3D415B;stroke-width:2.496;stroke-miterlimit:10;}
	.st11{fill:#FFE0BC;}
	.st12{fill:#EFC9A3;}
	.st13{fill:#129093;}
	.st14{fill:#303348;}
	.st15{fill:#282C3C;}
	.st16{fill:#007C86;}
	.st17{fill:#C2DFF1;}
	.st18{fill:#A5C3D3;}
	.st19{fill:#ECF2F5;}
	.st20{fill:#FCD8B6;}
	.st21{fill:#29323D;}
	.st22{fill:#33D18D;}
	.st23{fill:#8B4200;}
	.st24{fill:none;stroke:#3D415B;stroke-width:2;stroke-miterlimit:10;}
</style>
<title>details-1-office-worker</title>
<g>
	<path class="st0" d="M142.2,78.9c-34.5-20.8-50.8-84.9-104-46.6C-15.1,70.6,7,149.2,58,168.2s116.7,8.3,135.1-27
		C224.7,80.8,165.3,92.9,142.2,78.9z"/>
	<path class="st0" d="M142.2,78.9c-34.5-20.8-50.8-84.9-104-46.6C-15.1,70.6,7,149.2,58,168.2s116.7,8.3,135.1-27
		C224.7,80.8,165.3,92.9,142.2,78.9z"/>
	<g>
		<defs>
			<path id="SVGID_1_" d="M142.2,78.9c-34.5-20.8-50.8-84.9-104-46.6C-15.1,70.6,7,149.2,58,168.2s116.7,8.3,135.1-27
				C224.7,80.8,165.3,92.9,142.2,78.9z"/>
		</defs>
		<clipPath id="SVGID_2_">
			<use xlink:href="#SVGID_1_"  style="overflow:visible;"/>
		</clipPath>
		<path class="st1" d="M2.3,153c0,0,29.4-29.5,78.5-15.5c49.1,14,78,2,71.9-72.2c0,0,69,9.6,60.2,58.7
			C202.2,183.6,63.5,206.3,2.3,153z"/>
	</g>
	
		<linearGradient id="SVGID_3_" gradientUnits="userSpaceOnUse" x1="-5.960219e-07" y1="187.94" x2="1" y2="187.94" gradientTransform="matrix(194.7432 0 0 194.7432 11.0852 -36505.0859)">
		<stop  offset="0" style="stop-color:#00BFC2"/>
		<stop  offset="0.246" style="stop-color:#00BBC5"/>
		<stop  offset="0.49" style="stop-color:#00AFCF"/>
		<stop  offset="0.732" style="stop-color:#009BDF"/>
		<stop  offset="0.972" style="stop-color:#0080F5"/>
		<stop  offset="1" style="stop-color:#007CF8"/>
	</linearGradient>
	<path class="st2" d="M145.8,74.9C111.3,54.1,95-9.9,41.8,28.3c-53.2,38.3-31.2,116.9,19.9,135.9s116.7,8.3,135.1-27
		C228.4,76.8,168.9,88.9,145.8,74.9z"/>
	<path class="st3" d="M145.8,74.9C111.3,54.1,95-9.9,41.8,28.3c-53.2,38.3-31.2,116.9,19.9,135.9s116.7,8.3,135.1-27
		C228.4,76.8,168.9,88.9,145.8,74.9z"/>
	<g>
		<defs>
			<path id="SVGID_4_" d="M145.8,74.9C111.3,54.1,95-9.9,41.8,28.3c-53.2,38.3-31.2,116.9,19.9,135.9s116.7,8.3,135.1-27
				C228.4,76.8,168.9,88.9,145.8,74.9z"/>
		</defs>
		<clipPath id="SVGID_5_">
			<use xlink:href="#SVGID_4_"  style="overflow:visible;"/>
		</clipPath>
		<path class="st4" d="M5.9,149c0,0,29.4-29.5,78.5-15.5c49.1,14,78,2,71.9-72.2c0,0,69,9.6,60.2,58.7
			C205.8,179.6,67.2,202.3,5.9,149z"/>
	</g>
	<path class="st5" d="M70.3,27.8v28.8c0,2.5-2,4.5-4.5,4.5h0H4.5c-2.5,0-4.5-2-4.5-4.5v0V27.8c0-2.5,2-4.5,4.5-4.5h0h61.3
		C68.3,23.4,70.3,25.4,70.3,27.8L70.3,27.8z"/>
	<path class="st3" d="M70.3,26.5v1.8H0v-1.8c0-1.8,2-3.3,4.5-3.3h0h61.3C68.3,23.2,70.3,24.7,70.3,26.5L70.3,26.5z"/>
	<circle class="st6" cx="4" cy="27.2" r="0.9"/>
	<circle class="st6" cx="7.7" cy="27.2" r="0.9"/>
	<circle class="st6" cx="11.5" cy="27.2" r="0.9"/>
	<path class="st6" d="M9.6,34.5h14.1c0.5,0,0.8,0.4,0.8,0.8v11.4c0,0.5-0.4,0.8-0.8,0.8H9.6c-0.5,0-0.8-0.4-0.8-0.8V35.3
		C8.7,34.9,9.1,34.5,9.6,34.5L9.6,34.5z"/>
	<path class="st6" d="M60.6,53.7H8.7c-0.5,0-1-0.4-1-1s0.4-1,1-1h51.9c0.5,0,1,0.4,1,1S61.1,53.7,60.6,53.7z"/>
	<path class="st6" d="M60.6,46.2H29.1c-0.5,0-1-0.4-1-1s0.4-1,1-1h31.5c0.5,0,1,0.4,1,1S61.1,46.2,60.6,46.2z"/>
	<path class="st6" d="M48.6,39.2H29.1c-0.5,0-1-0.4-1-1s0.4-1,1-1h19.5c0.5,0,1,0.4,1,1S49.2,39.2,48.6,39.2z"/>
	<path class="st5" d="M145.4,24.1c1.1-1.3,2.4-2.6,3.6-3.8c2.5-2.1,5.3-5.9,14.5-3.1c0.7,0.2,1.4,0.5,2.1,0.8
		c0.8,0.3,3.3,0.3,5.8-1.7c4.1-3.2,5.6-5.6,11.2-5.7c6.5-0.1,7.5,8,12.5,10c3.2,1.3,11.6,2.6,13.4,3.2L145.4,24.1z"/>
	<path class="st6" d="M95.6,48.2l-0.5-1.3l-0.5,1.3c-0.5,1.2-1.4,2.2-2.6,2.6c1.2,0.5,2.1,1.4,2.6,2.6l0.5,1.3l0.5-1.3
		c0.5-1.2,1.4-2.2,2.6-2.6C97,50.4,96.1,49.4,95.6,48.2z"/>
	<path class="st6" d="M53.5,124.5l-0.5-1.3l-0.5,1.3c-0.5,1.2-1.4,2.2-2.6,2.6c1.2,0.5,2.1,1.4,2.6,2.6l0.5,1.3l0.5-1.3
		c0.5-1.2,1.4-2.2,2.6-2.6C54.9,126.7,54,125.7,53.5,124.5z"/>
	<path class="st6" d="M179.7,116.5l-0.3-0.9l-0.3,0.9c-0.3,0.8-0.9,1.4-1.7,1.7c0.8,0.3,1.4,0.9,1.7,1.7l0.3,0.9l0.3-0.9
		c0.3-0.8,0.9-1.4,1.7-1.7C180.7,117.9,180,117.2,179.7,116.5z"/>
	<path class="st6" d="M33.2,72.2l-0.3-0.9l-0.3,0.9c-0.3,0.8-0.9,1.4-1.7,1.7c0.8,0.3,1.4,0.9,1.7,1.7l0.3,0.9l0.3-0.9
		c0.3-0.8,0.9-1.4,1.7-1.7C34.1,73.6,33.5,73,33.2,72.2z"/>
	<path class="st7" d="M132.9,0h-29.2c-1.6,0-2.9,1.3-2.9,2.9v0v15.8c0,1.6,1.3,2.9,2.9,2.9h0h1.6v7.2l7.2-7.2h20.4
		c1.6,0,2.9-1.3,2.9-2.9v0V2.9C135.8,1.3,134.5,0,132.9,0z"/>
	<path class="st6" d="M107.8,15.4h6.9c0.5,0,1,0.4,1,1s-0.4,1-1,1h-6.9c-0.5,0-1-0.4-1-1S107.3,15.4,107.8,15.4z"/>
	<path class="st6" d="M107.8,10.6h12.7c0.5,0,1,0.4,1,1s-0.4,1-1,1h-12.7c-0.5,0-1-0.4-1-1S107.3,10.6,107.8,10.6z"/>
	<path class="st6" d="M107.8,5.9h21.8c0.5,0,1,0.4,1,1s-0.4,1-1,1h-21.8c-0.5,0-1-0.4-1-1S107.3,5.9,107.8,5.9z"/>
	<path class="st8" d="M114.8,135.3h33.8c6.8,0,12.5-5.1,13.2-11.8l4.9-50.7h-33.8l-0.7,29.4L114.8,135.3z"/>
	<path class="st9" d="M114.8,134.8l4.5-0.2l5.1-0.2c2-0.1,4.2-0.1,6.7-0.1l7.9-0.2l8.8-0.1h0.6h0.2l0.3,0c0.4,0,0.8,0,1.1-0.1
		c0.3-0.1,0.7-0.1,1-0.2s0.7-0.2,1-0.3c1.4-0.4,2.7-1.1,3.8-2c2.3-1.8,4-4.4,4.5-7.3l0.2-1.1l0.1-1.2l0.2-2.4l0.5-4.8l0.9-9.4
		l1.8-16.6l1.3-11.7l0.5-4.4c0.1-0.4,0.4-0.7,0.9-0.7c0.4,0.1,0.7,0.4,0.7,0.8l-0.3,4.5L166.2,89l-1.4,16.6l-0.9,9.4l-0.5,4.8
		l-0.2,2.4l-0.1,1.2c-0.1,0.5-0.1,0.9-0.2,1.3c-1,5.3-5,9.7-10.2,11.2c-0.4,0.1-0.8,0.2-1.3,0.3c-0.4,0.1-0.9,0.1-1.3,0.2
		c-0.4,0.1-0.8,0-1.2,0.1l-0.3,0h-0.3h-0.6l-8.8-0.1l-7.9-0.2c-2.4-0.1-4.7-0.1-6.7-0.1l-5.1-0.2l-4.5-0.2c-0.3,0-0.6-0.2-0.6-0.5
		C114.3,135,114.5,134.8,114.8,134.8z"/>
	<line class="st10" x1="134.1" y1="136.3" x2="134.1" y2="172.1"/>
	<rect x="31.6" y="102.7" class="st9" width="108.9" height="1.7"/>
	<polygon class="st11" points="127.7,178.9 128.8,183 123.2,184.7 121.4,179.6 	"/>
	<polygon class="st11" points="93.7,175.8 93.7,179.2 98.7,179.2 99.2,175.8 	"/>
	<path class="st12" d="M132,79.6l-7.5,18.6l-0.2,0.4c-0.4,1.1-1.5,1.8-2.6,1.8l-21.4-0.2c-0.9,0-1.6-0.7-1.6-1.6
		c0-0.8,0.6-1.4,1.3-1.5l21.2-3.1l-2.8,2.2l5.1-19.4c0.6-2.4,3.1-3.8,5.5-3.2c2.4,0.6,3.8,3.1,3.2,5.5C132.1,79.2,132,79.4,132,79.6
		z"/>
	<path class="st12" d="M102.5,96.7l-7.3-0.2c-1.9,0.1-3.4,1.7-3.3,3.6h10.7L102.5,96.7z"/>
	<path class="st13" d="M120.1,81.8l11.7,2.9l1.9-10.4c0.5-2.8-1.4-5.4-4.1-5.9l-0.2,0c-2.4-0.4-4.7,1-5.6,3.3L120.1,81.8z"/>
	<path class="st14" d="M132.2,102.1l-36.1,18.3c-3.4,1.7-5.4,5.2-5.2,9l2.7,46.4h5.5l7.5-49.6l28.1-19.7L132.2,102.1z"/>
	<path class="st15" d="M125.9,38.8c0,0,10-3.4,15.3,6.1c0.3,0.6,0.6,1.1,1,1.6c1.1,1.3,3.3,3.6,5.8,4.3c9.8,3,15.9,21.5-3.5,23.1
		c-24.3,2.1-31.2-2.7-27.8-12.4c2.5-6.9,0.3-11.8,0.3-11.8L125.9,38.8z"/>
	<path class="st16" d="M133.9,63.6l-5.2,2.3c-3.1,1.4-5.1,4.5-5,7.8c0.1,6.8,1.6,23.7,7.4,30.2h17.6c2.7-12,1.2-30.4,1.2-30.4
		c0.2-4.5-3.1-8.4-7.6-9L133.9,63.6z"/>
	<path class="st12" d="M134.3,69.1L134.3,69.1c-1.8,0.2-3.5-1.1-3.7-2.9l-1.4-11.2l6.7-0.8l1.4,11.1
		C137.5,67.2,136.2,68.9,134.3,69.1L134.3,69.1z"/>
	<path class="st11" d="M118.2,46.7l16.4-2.1l1.3,9.7c0.6,4.5-2.6,8.5-7,9.1l-0.3,0c-4.5,0.6-8.5-2.6-9.1-7L118.2,46.7L118.2,46.7z"
		/>
	<path class="st15" d="M136.4,50.6l-1.4,2.9c0,0-1.9,1.6-2.4-2.4c-0.4-3.4-2.9-2.8-2.9-2.8s-8.5,6.5-13.6,2c-4-3.5,2.4-9.9,9.8-11.4
		l9.6,4.2L136.4,50.6z"/>
	<path class="st11" d="M136.4,50.6c1.5-0.2,2.8,0.9,3,2.4c0.2,1.5-0.9,2.8-2.4,3c-1.5,0.2-2.8-0.9-3-2.4S134.9,50.7,136.4,50.6z"/>
	<path class="st6" d="M136.6,54c0.3,0,0.5,0.2,0.5,0.4s-0.2,0.5-0.4,0.5s-0.5-0.2-0.5-0.4C136.2,54.2,136.4,54,136.6,54z"/>
	<path class="st6" d="M122.4,58.7l4.6-1c0,0,0.2,2-2.3,2.4C123.7,60.3,122.6,59.8,122.4,58.7L122.4,58.7z"/>
	<path class="st9" d="M148.6,103.9H131l-28.1,17c-3.3,2-4.6,6.1-3.1,9.7l21.6,49l6.2-0.7l-11.6-47.3c9.7-0.4,27.8-1.9,32.5-7.1
		C156.6,115.5,148.6,103.9,148.6,103.9z"/>
	<path class="st17" d="M88.7,73.2l10,26.9H66.2l-9.3-25.4c-0.2-0.6,0.1-1.3,0.7-1.5c0.1,0,0.3-0.1,0.4-0.1L88.7,73.2L88.7,73.2z"/>
	<path class="st18" d="M88.5,73.2h1.5c0.8,0,1.6,0.5,1.9,1.3l9.4,25.4h-2.8L88.5,73.2z"/>
	<path class="st18" d="M66.3,99.9h32.2v2.6H68.6c-1.3,0-2.4-1.1-2.4-2.3L66.3,99.9L66.3,99.9z"/>
	<path class="st18" d="M98.7,102.7h20.1c0.7,0,1.3-0.6,1.3-1.3s-0.6-1.3-1.3-1.3H98.7V102.7z"/>
	<path class="st19" d="M76.6,84.1c1.5-0.5,3.3,0.6,3.9,2.4c0.6,1.9-0.1,3.8-1.7,4.3c-1.5,0.5-3.3-0.6-3.9-2.4
		C74.3,86.5,75.1,84.6,76.6,84.1z"/>
	<path class="st11" d="M145.7,79.1L138.2,98l-0.2,0.4c-0.4,1.1-1.5,1.8-2.7,1.8l-21.4-0.1c-0.9,0-1.6-0.7-1.6-1.6
		c0-0.8,0.6-1.5,1.4-1.6l21.2-3.1L132,96l5.1-19.7c0.6-2.4,3.1-3.9,5.5-3.3c2.4,0.6,3.9,3.1,3.3,5.5l0,0.1
		C145.8,78.7,145.8,78.9,145.7,79.1z"/>
	<path class="st20" d="M115.8,96.3l-7.3-0.2c-1.9,0.1-3.4,1.8-3.2,3.7h10.6L115.8,96.3z"/>
	<path class="st13" d="M133.8,81.4l11.7,2.9l1.9-10.6c0.5-2.8-1.4-5.5-4.1-6l-0.2,0c-2.4-0.4-4.8,1-5.6,3.3L133.8,81.4z"/>
	<path class="st21" d="M119.5,180.7l-2.7,2.7l-6.1,1.5c-0.6,0.2-1.1,0.6-1.4,1.2l-0.3,0.9c-0.1,0.3,0.1,0.7,0.4,0.9l0.2,0l19.8-0.5
		c0.6,0,1.1-0.5,1.1-1.1l0-0.1l-1.6-5.6l-3,0.7c-1,0.3-2.1,0.2-3-0.3l-1.1-0.6C121.1,180,120.2,180.1,119.5,180.7z"/>
	<path class="st21" d="M91.1,176.8l-2.7,2.7l-6.1,1.5c-0.6,0.2-1.1,0.6-1.4,1.2l-0.3,0.9c-0.1,0.3,0.1,0.7,0.4,0.9l0.2,0l17.9-0.4
		c0.6,0,1.1-0.5,1.1-1.1l0-0.1l-0.5-5.7l-2.2,0.7c-1,0.3-2.1,0.2-3-0.3l-1.1-0.6C92.7,176.1,91.8,176.2,91.1,176.8z"/>
	<path class="st7" d="M220.7,60.8h-50.3c-1.7,0-3.1-1.4-3.1-3.1V43.4c0-1.7,1.4-3.1,3.1-3.1h50.3c1.7,0,3.1,1.4,3.1,3.1v14.3
		C223.8,59.4,222.4,60.8,220.7,60.8z"/>
	<path class="st6" d="M216.7,56.4h-10.4c-0.5,0-1-0.4-1-1v-9.8c0-0.5,0.4-1,1-1h10.4c0.5,0,1,0.4,1,1v9.8
		C217.7,56,217.2,56.4,216.7,56.4z"/>
	<path class="st6" d="M174.4,47.1h26.8c0.5,0,0.8-0.4,0.8-0.8s-0.4-0.8-0.8-0.8h-26.8c-0.5,0-0.8,0.4-0.8,0.8S173.9,47.1,174.4,47.1
		z"/>
	<path class="st6" d="M201.2,51.4h-9.4c-0.5,0-0.8-0.4-0.8-0.8v0c0-0.5,0.4-0.8,0.8-0.8h9.4c0.5,0,0.8,0.4,0.8,0.8v0
		C202.1,51,201.7,51.4,201.2,51.4z"/>
	<path class="st6" d="M185.6,51.4h-11.2c-0.5,0-0.8-0.4-0.8-0.8v0c0-0.5,0.4-0.8,0.8-0.8h11.2c0.5,0,0.8,0.4,0.8,0.8v0
		C186.4,51,186,51.4,185.6,51.4z"/>
	<path class="st6" d="M181.1,55.6h20.1c0.5,0,0.8-0.4,0.8-0.8s-0.4-0.8-0.8-0.8h-20.1c-0.5,0-0.8,0.4-0.8,0.8S180.6,55.6,181.1,55.6
		z"/>
	<path class="st22" d="M49.8,94.5c0,0,8.3,0,6.6-8.5C56.4,86,47.7,86.9,49.8,94.5z"/>
	<path class="st22" d="M48.8,94.1c0,0-8.4,0-6.6-8.6C42.1,85.5,50.9,86.3,48.8,94.1z"/>
	<path class="st22" d="M49.2,94.1c0,0-6.1-6.2,1.1-11.6C50.2,82.5,56,89.7,49.2,94.1z"/>
	<polygon class="st23" points="55.9,93.4 42.5,93.4 44.6,102.7 53.5,102.7 	"/>
	<line class="st24" x1="82.5" y1="104.4" x2="82.5" y2="170"/>
</g>
</svg>
